<mxfile host="app.diagrams.net" modified="2021-01-31T22:59:00.732Z" agent="5.0 (X11; Linux x86_64) AppleWebKit/537.36 (KHTML, like Gecko) Chrome/88.0.4324.96 Safari/537.36" etag="6l4GwkiRL6SUtyEtDMRg" version="14.2.9" type="github">
  <diagram id="wFE0QG_FPsp0jaGvCLVb" name="Page-1">
    <mxGraphModel dx="1422" dy="740" grid="1" gridSize="10" guides="1" tooltips="1" connect="1" arrows="1" fold="1" page="1" pageScale="1" pageWidth="850" pageHeight="1100" math="0" shadow="0">
      <root>
        <mxCell id="0" />
        <mxCell id="1" parent="0" />
        <mxCell id="UsW1a98CuNe7m57pv13w-2" value="NODE.js +Express and mongoDB for database" style="rounded=0;whiteSpace=wrap;html=1;fillColor=#dae8fc;strokeColor=#6c8ebf;" vertex="1" parent="1">
          <mxGeometry x="100" y="120" width="160" height="90" as="geometry" />
        </mxCell>
        <mxCell id="UsW1a98CuNe7m57pv13w-6" value="" style="endArrow=classic;html=1;entryX=1;entryY=0.75;entryDx=0;entryDy=0;" edge="1" parent="1" target="UsW1a98CuNe7m57pv13w-2">
          <mxGeometry width="50" height="50" relative="1" as="geometry">
            <mxPoint x="400" y="470" as="sourcePoint" />
            <mxPoint x="450" y="360" as="targetPoint" />
            <Array as="points">
              <mxPoint x="400" y="188" />
            </Array>
          </mxGeometry>
        </mxCell>
        <mxCell id="UsW1a98CuNe7m57pv13w-7" value="SOCKET.io to handle chessmoves" style="ellipse;whiteSpace=wrap;html=1;aspect=fixed;" vertex="1" parent="1">
          <mxGeometry x="310" y="210" width="80" height="80" as="geometry" />
        </mxCell>
        <mxCell id="UsW1a98CuNe7m57pv13w-9" value="REACT(UI)" style="rounded=0;whiteSpace=wrap;html=1;" vertex="1" parent="1">
          <mxGeometry x="330" y="470" width="140" height="60" as="geometry" />
        </mxCell>
        <mxCell id="UsW1a98CuNe7m57pv13w-10" value="Browser" style="text;html=1;strokeColor=none;fillColor=none;align=center;verticalAlign=middle;whiteSpace=wrap;rounded=0;" vertex="1" parent="1">
          <mxGeometry x="380" y="530" width="40" height="20" as="geometry" />
        </mxCell>
        <mxCell id="UsW1a98CuNe7m57pv13w-11" value="" style="endArrow=classic;startArrow=classic;html=1;" edge="1" parent="1" target="UsW1a98CuNe7m57pv13w-12">
          <mxGeometry width="50" height="50" relative="1" as="geometry">
            <mxPoint x="450" y="470" as="sourcePoint" />
            <mxPoint x="640" y="180" as="targetPoint" />
            <Array as="points">
              <mxPoint x="450" y="180" />
            </Array>
          </mxGeometry>
        </mxCell>
        <mxCell id="UsW1a98CuNe7m57pv13w-12" value="Browser severs REACT" style="rounded=0;whiteSpace=wrap;html=1;" vertex="1" parent="1">
          <mxGeometry x="570" y="150" width="120" height="60" as="geometry" />
        </mxCell>
        <mxCell id="UsW1a98CuNe7m57pv13w-13" value="User registers&lt;br&gt;/signups&lt;br&gt;" style="ellipse;whiteSpace=wrap;html=1;aspect=fixed;" vertex="1" parent="1">
          <mxGeometry x="30" y="630" width="80" height="80" as="geometry" />
        </mxCell>
        <mxCell id="UsW1a98CuNe7m57pv13w-19" value="User can start a game and it will be a timed game" style="rounded=1;whiteSpace=wrap;html=1;" vertex="1" parent="1">
          <mxGeometry x="170" y="640" width="120" height="60" as="geometry" />
        </mxCell>
        <mxCell id="UsW1a98CuNe7m57pv13w-24" value="" style="endArrow=classic;html=1;" edge="1" parent="1">
          <mxGeometry width="50" height="50" relative="1" as="geometry">
            <mxPoint x="110" y="670" as="sourcePoint" />
            <mxPoint x="170" y="670" as="targetPoint" />
          </mxGeometry>
        </mxCell>
        <mxCell id="UsW1a98CuNe7m57pv13w-25" value="" style="endArrow=classic;html=1;" edge="1" parent="1">
          <mxGeometry width="50" height="50" relative="1" as="geometry">
            <mxPoint x="290" y="669.5" as="sourcePoint" />
            <mxPoint x="350" y="669.5" as="targetPoint" />
          </mxGeometry>
        </mxCell>
        <mxCell id="UsW1a98CuNe7m57pv13w-26" value="Games will be stored in a database with the username the user has played against" style="rounded=0;whiteSpace=wrap;html=1;" vertex="1" parent="1">
          <mxGeometry x="350" y="640" width="120" height="60" as="geometry" />
        </mxCell>
        <mxCell id="UsW1a98CuNe7m57pv13w-27" value="" style="endArrow=classic;html=1;" edge="1" parent="1" target="UsW1a98CuNe7m57pv13w-28">
          <mxGeometry width="50" height="50" relative="1" as="geometry">
            <mxPoint x="470" y="669.5" as="sourcePoint" />
            <mxPoint x="530" y="669.5" as="targetPoint" />
          </mxGeometry>
        </mxCell>
        <mxCell id="UsW1a98CuNe7m57pv13w-28" value="if user is disconnected for more than 30sec, they will automatically resgin" style="rounded=0;whiteSpace=wrap;html=1;" vertex="1" parent="1">
          <mxGeometry x="510" y="640" width="160" height="60" as="geometry" />
        </mxCell>
      </root>
    </mxGraphModel>
  </diagram>
</mxfile>
